<mxfile host="app.diagrams.net" modified="2023-06-07T13:24:24.660Z" agent="Mozilla/5.0 (Windows NT 10.0; Win64; x64) AppleWebKit/537.36 (KHTML, like Gecko) Chrome/114.0.0.0 Safari/537.36" version="21.1.5" etag="P_dD03t-XJpaEcfI_mtr" type="github">
  <diagram name="第 1 页" id="npBRvzyXV74ChKlpGh9H">
    <mxGraphModel>
      <root>
        <mxCell id="0" />
        <mxCell id="1" parent="0" />
      </root>
    </mxGraphModel>
  </diagram>
</mxfile>
